<?xml version="1.0" standalone="no"?>
<!DOCTYPE svg PUBLIC "-//W3C//DTD SVG 20010904//EN"
 "http://www.w3.org/TR/2001/REC-SVG-20010904/DTD/svg10.dtd">
<svg version="1.0" xmlns="http://www.w3.org/2000/svg"
 width="415.000000pt" height="317.000000pt" viewBox="0 0 415.000000 317.000000"
 preserveAspectRatio="xMidYMid meet">
<metadata>
Created by potrace 1.15, written by Peter Selinger 2001-2017
</metadata>
<g transform="translate(0.000000,317.000000) scale(0.100000,-0.100000)"
fill="#000000" stroke="none">
<path d="M3701 3154 c-64 -13 -142 -58 -173 -99 -9 -11 -86 -121 -172 -244
-144 -205 -156 -224 -139 -236 10 -7 50 -36 89 -63 l71 -51 157 225 c109 155
167 229 188 240 54 28 102 15 205 -56 109 -75 121 -75 176 5 58 84 55 99 -28
162 -149 112 -247 143 -374 117z"/>
<path d="M735 3151 c-11 -5 -29 -19 -40 -31 -19 -21 -20 -38 -23 -359 -1 -185
-4 -341 -6 -346 -2 -6 -21 -16 -42 -24 -22 -7 -122 -43 -224 -81 -102 -37
-220 -79 -262 -95 -96 -33 -125 -56 -134 -100 -9 -47 2 -81 32 -108 14 -12
137 -100 272 -195 l247 -174 75 6 c41 2 113 10 159 16 46 6 85 9 87 8 1 -2 9
-46 17 -98 17 -113 61 -232 119 -320 85 -131 140 -174 839 -663 366 -256 687
-477 713 -491 214 -114 461 -127 692 -37 217 84 383 261 467 497 32 88 42 160
40 286 -4 210 -91 408 -248 560 -63 61 -1381 984 -1455 1019 -173 82 -385 107
-549 64 -35 -9 -66 -14 -69 -10 -5 5 -38 126 -46 170 -8 42 -30 111 -42 128
-6 10 -130 101 -275 203 -270 189 -287 198 -344 175z m1051 -1302 c33 -15 49
-32 68 -72 52 -102 20 -203 -79 -248 -120 -55 -244 18 -253 149 -10 145 131
236 264 171z m611 -430 c67 -25 106 -88 106 -171 0 -46 -5 -65 -27 -97 -30
-44 -103 -81 -157 -81 -77 0 -159 71 -174 152 -14 73 34 165 100 194 37 16
114 18 152 3z m604 -433 c77 -14 130 -87 128 -178 -1 -64 -22 -103 -76 -141
-125 -88 -294 6 -281 157 6 66 46 128 96 149 64 27 59 27 133 13z"/>
<path d="M2707 2584 c-16 -8 -36 -23 -46 -32 -169 -160 -182 -175 -169 -188 7
-7 220 -157 473 -334 441 -308 460 -320 469 -298 6 13 22 50 36 83 15 33 33
76 40 95 7 19 16 40 20 45 4 6 8 31 9 57 3 60 -25 116 -81 160 -70 57 -571
403 -601 416 -38 16 -116 14 -150 -4z"/>
</g>
</svg>
